<svg xmlns="http://www.w3.org/2000/svg" viewBox="0 0 1080 1080" id="confidential-information"><path d="M156 339.7h130.9c33.4 0 60.6-27.2 60.6-60.5V148.3c0-3.4-2.1-6.4-5.2-7.7-3.2-1.3-6.7-.6-9.1 1.8L150 325.6c-2.3 2.3-3.1 5.9-1.7 9.1 1.2 3 4.3 5 7.7 5zm396.4-13.3c26.1 0 47.4-21.3 47.4-47.4 0-26.1-21.3-47.3-47.4-47.3-26.2 0-47.4 21.2-47.4 47.3-.1 26.1 21.2 47.4 47.4 47.4zM650.9 431c0-21.9-17.9-39.8-39.8-39.8H493.6c-21.9 0-39.8 17.9-39.8 39.8v74.5h197.1V431z"></path><path d="M765.5 872.3C667 870.7 587 790.6 587 693.6c0-96.9 79.9-177 178.2-178.5h2.8c2 0 3.9 0 5.9.2V200.7c0-33.4-27.2-60.6-60.5-60.6H362.7c.9 2.6 1.4 5.3 1.4 8.3v130.9c0 42.6-34.7 77.2-77.3 77.2H156c-2.9 0-5.8-.5-8.3-1.4v524.4c0 33.4 27.2 60.6 60.6 60.6h505.2c33.3 0 60.5-27.2 60.5-60.6v-7.3c-2 .2-3.9.2-5.9.2h-2.6zM552.4 215c35.3 0 64.1 28.7 64.1 63.9 0 35.3-28.8 64.1-64.1 64.1s-64.1-28.8-64.1-64.1c0-35.2 28.7-63.9 64.1-63.9zM437.2 431c0-31.1 25.3-56.5 56.5-56.5h117.5c31.1 0 56.5 25.3 56.5 56.5v82.8c0 4.6-3.7 8.3-8.3 8.3H445.5c-4.6 0-8.3-3.7-8.3-8.3V431zm53.9 396.2H250.6c-4.6 0-8.3-3.7-8.3-8.3s3.7-8.3 8.3-8.3H491c4.6 0 8.3 3.7 8.3 8.3s-3.6 8.3-8.2 8.3zm0-112.7H250.6c-4.6 0-8.3-3.7-8.3-8.3 0-4.6 3.7-8.3 8.3-8.3H491c4.6 0 8.3 3.7 8.3 8.3.1 4.6-3.6 8.3-8.2 8.3zm0-112.7H250.6c-4.6 0-8.3-3.7-8.3-8.3 0-4.6 3.7-8.3 8.3-8.3H491c4.6 0 8.3 3.7 8.3 8.3.1 4.6-3.6 8.3-8.2 8.3z"></path><path d="M745.8 667.3c.5-.2 1.1-.4 1.6-.5 1.6-.5 3.2-1 4.8-1.4.7-.2 1.5-.3 2.2-.5 1.6-.3 3.1-.6 4.7-.8l2.1-.3c2.3-.2 4.5-.4 6.8-.4s4.6.2 6.8.4c.7.1 1.4.2 2 .3 1.6.2 3.2.5 4.8.8.7.2 1.4.3 2.1.5 1.7.4 3.3.9 5 1.5.5.2 1 .3 1.5.5 2.1.8 4.2 1.7 6.2 2.7.1 0 .2.1.2.1v-29.5c0-7.6-3-14.8-8.4-20.4-5.4-5.3-12.7-8.3-20.2-8.3-15.8 0-28.7 12.9-28.7 28.7V670c.1 0 .2-.1.3-.1 2.1-1 4.1-1.9 6.2-2.6zm53.8 24.6c-6.2-5.5-13.6-9.1-21.6-10.8-3.3-.7-6.6-1.2-9.9-1.2-11.6 0-22.8 4.2-31.5 11.9-10.3 9.1-16.3 22.2-16.3 36 0 26.3 21.4 47.8 47.8 47.8 26.3 0 47.8-21.4 47.8-47.8-.1-13.7-6-26.8-16.3-35.9zm-23.2 45c0 4.6-3.7 8.3-8.3 8.3-4.6 0-8.3-3.7-8.3-8.3v-18.2c0-4.6 3.7-8.3 8.3-8.3 4.6 0 8.3 3.7 8.3 8.3v18.2z"></path><path d="M768 531.7h-2.5c-89.2 1.3-161.8 73.9-161.8 161.8 0 88 72.6 160.7 161.8 162.1h2.4c90.7 0 164.4-72.8 164.4-162.1.1-89.2-73.7-161.8-164.3-161.8zm.1 260.6c-35.5 0-64.4-28.9-64.4-64.4 0-17.2 6.9-33.6 19.1-45.7v-41.7c0-25 20.3-45.4 45.4-45.4 12 0 23.4 4.7 32 13.2 8.6 8.8 13.3 20.2 13.3 32.2v41.7c12.1 12.1 19.1 28.5 19.1 45.7-.1 35.4-29 64.4-64.5 64.4z"></path></svg>